<?xml version="1.0" standalone="no"?>
<!DOCTYPE svg PUBLIC "-//W3C//DTD SVG 20010904//EN"
 "http://www.w3.org/TR/2001/REC-SVG-20010904/DTD/svg10.dtd">
<svg version="1.0" xmlns="http://www.w3.org/2000/svg"
 width="209.000000pt" height="209.000000pt" viewBox="0 0 209.000000 209.000000"
 preserveAspectRatio="xMidYMid meet">
<metadata>
Created by potrace 1.10, written by Peter Selinger 2001-2011
</metadata>
<g transform="translate(0.000000,209.000000) scale(0.100000,-0.100000)"
fill="#000000" stroke="none">
<path d="M695 1825 c-259 -46 -481 -84 -495 -84 l-25 -1 3 -698 2 -698 68 -12
c37 -6 83 -14 102 -17 47 -8 429 -74 460 -80 14 -2 106 -18 204 -35 99 -17
182 -33 185 -34 3 -2 5 312 4 697 -2 386 -3 780 -3 875 0 157 -1 172 -17 171
-10 -1 -229 -39 -488 -84z m235 -505 l0 -59 -87 -3 -88 -3 -3 -262 -2 -263
-44 0 c-81 0 -76 -18 -76 268 l0 255 -90 -6 -90 -7 0 55 0 55 38 1 c29 1 331
20 425 28 14 1 17 -8 17 -59z"/>
<path d="M1315 1600 l-30 -17 -3 -122 -3 -122 41 -18 c71 -31 140 -3 187 77
36 60 5 155 -63 193 -45 25 -95 29 -129 9z"/>
<path d="M1731 1502 c-61 -32 -91 -79 -91 -144 0 -112 117 -181 218 -129 47
24 82 80 82 132 0 102 -123 186 -209 141z"/>
<path d="M1279 873 c-2 -373 -2 -364 10 -376 6 -6 38 -9 72 -8 101 3 175 46
195 116 5 17 8 155 6 308 l-2 277 -140 0 -140 0 -1 -317z"/>
<path d="M1640 860 l0 -230 25 -1 c14 -1 31 -2 38 -3 35 -4 127 18 164 40 68
39 73 58 73 254 l0 170 -150 0 -150 0 0 -230z"/>
</g>
</svg>
